<svg xmlns="http://www.w3.org/2000/svg" viewBox="0 0 160 160"><rect width="160" height="160" rx="28" fill="#003594"/><g transform="translate(8,26)"><path fill="#fff" d="M76.9733314 102.2399968V89.43999712c11.55999972 5.1733332 21.22666614 7.74666648 29.02666595 7.74666648 4.0799999 0 7.78666647-.66666665 11.13333305-2.01333329 3.38666659-1.34666663 6.06666652-3.58666657 8.02666647-6.73333316 2.01333328-3.18666659 3.0266666-9.95999975 3.0266666-20.34666616V11.95999906h-27.75999931V.01333269h44.23999889v68.41333163c0 11.13333305-1.91999995 19.14666618-4.94666654 24.0399994-2.97333326 4.8933332-7.15999982 8.66666644-12.55999969 11.31999971-5.4133332 2.59999994-12.33333302 3.90666657-20.75999948 3.90666657-9.43999976 0-19.25333285-1.81333329-29.42666593-5.4533332"/><path fill="#fff" d="M33.02666584 23.83999876H45.7733322l9.78666642 36.71999909 12.14666636-36.71999909H78.4666647l12.2799997 36.71999909 9.69333309-36.71999909h12.74666635L97.89333089 81.346664H85.47999786L72.97333151 44.15999826 60.6933318 81.34666399H48.3999988L33.02666584 23.83999876"/><path fill="#fff" d="M0-6.4e-7h45.02666554v11.94666637H16.45333292v77.47999806h28.57333262v12.79999968H0V-6.4e-7"/></g></svg>
